HIERARCHY
ROOT Hips
{
	OFFSET -3.958830 18.904000 13.208200
	CHANNELS 6 Xposition Yposition Zposition Zrotation Yrotation Xrotation 
	JOINT LHipJoint
	{
		OFFSET 0.000000 0.000000 0.000000
		CHANNELS 3 Zrotation Yrotation Xrotation
		JOINT LeftUpLeg
		{
			OFFSET 1.800000 -1.400000 0.085000
			CHANNELS 3 Zrotation Yrotation Xrotation
			JOINT LeftLeg
			{
				OFFSET 2.215000 -6.000000 0.000000
				CHANNELS 3 Zrotation Yrotation Xrotation
				JOINT LeftFoot
				{
					OFFSET 2.500000 -6.900000 0.000000
					CHANNELS 3 Zrotation Yrotation Xrotation
					JOINT LeftToeBase
					{
						OFFSET 0.200000 -0.500000 1.950000
						CHANNELS 3 Zrotation Yrotation Xrotation
						End Site
						{
							OFFSET 0.000000 0.000000 0.000000
						}
					}
				}
			}
		}
	}
	JOINT RHipJoint
	{
		OFFSET 0.000000 0.000000 0.000000
		CHANNELS 3 Zrotation Yrotation Xrotation
		JOINT RightUpLeg
		{
			OFFSET -1.800000 -1.400000 0.085000
			CHANNELS 3 Zrotation Yrotation Xrotation
			JOINT RightLeg
			{
				OFFSET -2.215000 -6.000000 0.000000
				CHANNELS 3 Zrotation Yrotation Xrotation
				JOINT RightFoot
				{
					OFFSET -2.500000 -6.900000 0.000000
					CHANNELS 3 Zrotation Yrotation Xrotation
					JOINT RightToeBase
					{
						OFFSET -0.200000 -0.500000 1.950000
						CHANNELS 3 Zrotation Yrotation Xrotation
						End Site
						{
							OFFSET 0.000000 0.000000 0.000000
						}
					}
				}
			}
		}
	}
	JOINT LowerBack
	{
		OFFSET 0.000000 0.000000 0.000000
		CHANNELS 3 Zrotation Yrotation Xrotation
		JOINT Spine
		{
			OFFSET -0.087000 1.940000 -0.288900
			CHANNELS 3 Zrotation Yrotation Xrotation
			JOINT Spine1
			{
				OFFSET 0.000000 1.950000 0.060000
				CHANNELS 3 Zrotation Yrotation Xrotation
				JOINT Neck
				{
					OFFSET 0.000000 0.000000 0.000000
					CHANNELS 3 Zrotation Yrotation Xrotation
					JOINT Neck1
					{
						OFFSET 0.000000 1.600000 0.340000
						CHANNELS 3 Zrotation Yrotation Xrotation
						JOINT Head
						{
							OFFSET 0.000000 1.667000 -0.240000
							CHANNELS 3 Zrotation Yrotation Xrotation
							End Site
							{
								OFFSET 0.000000 0.000000 0.000000
							}
						}
					}
				}
				JOINT LeftShoulder
				{
					OFFSET 0.000000 0.000000 0.000000
					CHANNELS 3 Zrotation Yrotation Xrotation
					JOINT LeftArm
					{
						OFFSET 2.700000 1.550000 -0.730000
						CHANNELS 3 Zrotation Yrotation Xrotation
						JOINT LeftForeArm
						{
							OFFSET 5.450000 0.000000 0.000000
							CHANNELS 3 Zrotation Yrotation Xrotation
							JOINT LeftHand
							{
								OFFSET 3.450000 0.000000 0.000000
								CHANNELS 3 Zrotation Yrotation Xrotation
								JOINT LeftHandIndex1
								{
									OFFSET 0.750000 0.000000 0.000000
									CHANNELS 3 Zrotation Yrotation Xrotation
									End Site
									{
										OFFSET 0.000000 0.000000 0.000000
									}
								}
							}
						}
					}
				}
				JOINT RightShoulder
				{
					OFFSET 0.000000 0.000000 0.000000
					CHANNELS 3 Zrotation Yrotation Xrotation
					JOINT RightArm
					{
						OFFSET -2.700000 1.550000 -0.730000
						CHANNELS 3 Zrotation Yrotation Xrotation
						JOINT RightForeArm
						{
							OFFSET -5.450000 0.000000 0.000000
							CHANNELS 3 Zrotation Yrotation Xrotation
							JOINT RightHand
							{
								OFFSET -3.450000 0.000000 0.000000
								CHANNELS 3 Zrotation Yrotation Xrotation
								JOINT RightHandIndex1
								{
									OFFSET -0.750000 0.000000 0.000000
									CHANNELS 3 Zrotation Yrotation Xrotation
									End Site
									{
										OFFSET 0.000000 0.000000 0.000000
									}
								}
							}
						}
					}
				}
			}
		}
	}
}
MOTION
Frames: 5
Frame Time: 0.016667
-0.051080 13.634200 -1.194260 -39.775818 -3.163814 9.039484 -15.856362 9.834357 7.520651 -36.998101 -23.914233 -40.871917 72.149700 -24.383046 64.342606 3.482142 18.021039 -0.952022 0.332180 0.447850 0.303400 18.169239 -8.846341 2.042693 -15.745594 1.440493 23.977117 31.425141 -18.462287 24.114607 -1.866544 -8.719289 1.296457 0.051370 -0.260340 0.040000 -2.617560 -2.157978 -9.514477 -0.867793 6.230668 68.971043 -10.933122 11.651248 20.629079 11.890625 -12.355015 -17.882415 -24.637709 11.956237 37.341342 -3.665400 6.191250 -27.979480 -2.756816 -41.577284 17.117269 2.891646 -13.363317 -2.337437 12.172089 1.929929 -0.492485 -3.548522 2.707500 0.595640 -0.411470 0.508340 0.009310 -20.598172 57.432799 -6.321510 -44.619825 28.337194 -33.012241 -37.979250 36.275399 -9.063494 3.738260 -1.593650 0.054460 0.228470 -0.064840 0.015800 
-0.080870 13.580970 -1.118310 -39.509800 -3.108019 9.533140 -15.887793 9.674365 7.621000 -36.371717 -24.671179 -40.154795 71.183353 -24.406226 64.365966 3.404768 17.936538 -0.959262 0.361800 0.524350 0.284110 18.167953 -8.868979 1.905258 -17.235427 1.347234 22.593555 31.132981 -19.163368 25.330247 -1.845152 -8.845377 1.246685 0.124250 -0.206150 0.062800 -2.576236 -2.006805 -9.483285 -1.700110 6.153991 64.657545 -10.197785 11.570588 23.526565 11.282516 -12.531855 -16.504055 -23.341986 11.928498 35.034598 -3.978130 6.946580 -27.777230 -1.620888 -39.998905 16.989062 1.677877 -13.597963 -1.603979 11.767032 0.567327 -0.525391 -3.579118 2.772606 0.533770 -0.340630 0.477910 0.025090 -21.182131 55.377598 -4.410544 -47.863567 27.661595 -34.181949 -41.377820 35.470227 -10.013078 3.589983 -1.580758 0.058220 0.244450 -0.053920 0.034260 
-0.088050 13.522910 -0.999630 -39.039634 -0.144716 9.225038 -15.864583 9.319310 7.890548 -36.779018 -26.324482 -37.853357 71.771543 -24.859463 62.720516 3.274023 17.780743 -0.965352 0.416110 0.603750 0.278030 18.260723 -8.950442 1.731692 -17.094195 -0.170759 21.862490 29.047277 -19.045676 25.578347 -1.791767 -8.777755 1.234332 0.218860 -0.105080 0.120110 -2.745299 -1.578215 -9.538982 -0.041171 3.874042 61.519195 -10.070057 9.822523 27.367101 10.456578 -12.339028 -16.262412 -21.927809 12.987444 32.008454 -0.648210 7.912890 -26.658220 -0.417768 -40.056228 17.096021 0.532596 -13.013700 -1.695746 13.305138 -0.021145 -0.816942 -3.739545 2.877253 0.481280 -0.249340 0.431640 0.033190 -20.373677 52.467403 -1.687553 -52.625054 24.755875 -34.377634 -44.475987 34.856813 -10.485906 3.338508 -1.568153 0.055860 0.264650 -0.021410 0.051290 
-0.047320 13.436940 -0.877890 -40.881165 4.426706 7.356562 -15.700148 9.002822 8.047235 -36.074160 -27.116813 -35.143875 72.049284 -24.763733 58.809358 3.080183 17.070010 -0.837388 0.416520 0.605750 0.268880 18.464337 -9.289824 1.635824 -14.162760 -2.644404 20.951637 23.843752 -17.944741 26.652320 -1.705222 -8.469229 1.322681 0.240190 -0.089590 0.140710 -3.245228 -0.659384 -9.607902 6.365244 -1.374666 60.692409 -12.368291 6.465595 29.054639 11.335131 -11.813068 -16.671192 -20.666195 13.600628 31.392801 -0.692270 8.797110 -25.504730 -1.029041 -41.198861 17.547727 -0.092129 -12.431530 -1.256078 12.160385 -0.540751 -0.781707 -3.717110 2.929868 0.458990 -0.216470 0.408570 0.022530 -20.218756 50.169476 -1.463444 -53.200613 24.198279 -33.797935 -48.664439 35.143348 -11.763651 3.270100 -1.596964 0.052500 0.238430 -0.005430 0.046190 
-0.042770 13.381290 -0.777290 -41.336263 8.532015 5.601277 -15.695155 8.987158 8.238214 -35.994554 -27.089188 -33.268898 62.513470 -23.508846 63.155368 3.013051 16.604001 -0.683170 0.380160 0.551940 0.243820 18.506921 -9.413363 1.468073 -11.783069 -4.076743 18.755880 17.914398 -16.851044 29.811941 -1.587543 -8.205913 1.429746 0.218960 -0.033940 0.141040 -3.328162 -0.626230 -9.598684 8.585776 -3.912882 59.627176 -12.882688 4.376816 29.550086 11.752300 -10.582088 -17.002893 -18.262126 13.638221 31.256635 -0.837790 9.482580 -21.801550 -2.961146 -41.936838 17.308965 0.618774 -12.067704 -0.843714 10.143640 -0.430112 -0.626286 -3.702008 2.937575 0.393810 -0.162660 0.353250 0.045470 -18.610840 48.928889 -0.323462 -54.480816 23.432214 -32.958300 -50.717168 34.483156 -12.153464 3.190945 -1.614065 0.040450 0.218820 -0.015170 0.058210 
